<svg xmlns="http://www.w3.org/2000/svg" viewBox="0 0 191.453 40" role="img" aria-labelledby="title">
  <title id="title">Presence</title>
  <g transform="translate(0 2) scale(0.642857)">
    <path d="M0 8H8V48H0Z" fill="#2F628F"/>
    <path d="M8 8H22C31 8 36 13.5 36 22C36 30.5 31 36 22 36H8V29H21.5C26 29 28.5 26.5 28.5 22C28.5 17.5 26 15 21.5 15H8Z" fill="#2F628F"/>
    <path d="M20 0H48V7H20Z" fill="#2F628F"/>
    <path d="M41 0H48V56H41Z" fill="#2F628F"/>
    <path d="M24 49H48V56H24Z" fill="#2F628F"/>
  </g>
  <path d="M42.857 9.000 L52.088 9.000 Q56.209 9.000 58.410 10.831 Q60.616 12.658 60.616 16.039 Q60.616 19.438 58.410 21.265 Q56.209 23.092 52.088 23.092 L48.421 23.092 L48.421 30.579 L42.857 30.579 L42.857 9.000 Z M48.421 13.033 L48.421 19.059 L51.496 19.059 Q53.115 19.059 53.998 18.273 Q54.882 17.486 54.882 16.039 Q54.882 14.596 53.998 13.814 Q53.115 13.033 51.496 13.033 L48.421 13.033 Z M76.343 18.800 Q75.663 18.481 74.988 18.333 Q74.318 18.180 73.638 18.180 Q71.645 18.180 70.567 19.461 Q69.489 20.738 69.489 23.119 L69.489 30.579 L64.319 30.579 L64.319 14.392 L69.489 14.392 L69.489 17.052 Q70.488 15.461 71.779 14.735 Q73.074 14.004 74.882 14.004 Q75.141 14.004 75.441 14.027 Q75.747 14.046 76.325 14.120 L76.343 18.800 Z M95.070 22.444 L95.070 23.915 L82.976 23.915 Q83.161 25.737 84.290 26.648 Q85.418 27.559 87.439 27.559 Q89.072 27.559 90.783 27.074 Q92.499 26.588 94.307 25.608 L94.307 29.594 Q92.471 30.288 90.635 30.644 Q88.799 31.000 86.963 31.000 Q82.569 31.000 80.132 28.766 Q77.700 26.532 77.700 22.500 Q77.700 18.541 80.091 16.275 Q82.482 14.004 86.676 14.004 Q90.492 14.004 92.781 16.303 Q95.070 18.596 95.070 22.444 Z M89.752 20.724 Q89.752 19.248 88.891 18.347 Q88.031 17.440 86.644 17.440 Q85.141 17.440 84.202 18.287 Q83.263 19.133 83.032 20.724 L89.752 20.724 Z M111.634 14.897 L111.634 18.828 Q109.974 18.134 108.425 17.787 Q106.880 17.440 105.507 17.440 Q104.031 17.440 103.314 17.810 Q102.602 18.180 102.602 18.943 Q102.602 19.568 103.143 19.901 Q103.684 20.229 105.086 20.391 L105.997 20.520 Q109.974 21.024 111.343 22.181 Q112.717 23.337 112.717 25.811 Q112.717 28.396 110.806 29.700 Q108.901 31.000 105.118 31.000 Q103.513 31.000 101.797 30.746 Q100.086 30.491 98.278 29.987 L98.278 26.056 Q99.827 26.805 101.451 27.185 Q103.079 27.559 104.753 27.559 Q106.274 27.559 107.037 27.143 Q107.805 26.722 107.805 25.894 Q107.805 25.201 107.278 24.863 Q106.751 24.525 105.174 24.336 L104.262 24.220 Q100.808 23.785 99.420 22.615 Q98.033 21.445 98.033 19.059 Q98.033 16.487 99.795 15.248 Q101.562 14.004 105.201 14.004 Q106.635 14.004 108.207 14.221 Q109.784 14.434 111.634 14.897 Z M132.762 22.444 L132.762 23.915 L120.668 23.915 Q120.853 25.737 121.982 26.648 Q123.110 27.559 125.131 27.559 Q126.764 27.559 128.475 27.074 Q130.191 26.588 131.999 25.608 L131.999 29.594 Q130.163 30.288 128.327 30.644 Q126.491 31.000 124.655 31.000 Q120.261 31.000 117.824 28.766 Q115.391 26.532 115.391 22.500 Q115.391 18.541 117.782 16.275 Q120.173 14.004 124.368 14.004 Q128.183 14.004 130.473 16.303 Q132.762 18.596 132.762 22.444 Z M127.443 20.724 Q127.443 19.248 126.583 18.347 Q125.723 17.440 124.336 17.440 Q122.833 17.440 121.894 18.287 Q120.955 19.133 120.724 20.724 L127.443 20.724 Z M152.952 20.724 L152.952 30.579 L147.749 30.579 L147.749 28.974 L147.749 23.036 Q147.749 20.941 147.657 20.146 Q147.564 19.350 147.333 18.976 Q147.028 18.467 146.505 18.185 Q145.987 17.903 145.321 17.903 Q143.702 17.903 142.777 19.156 Q141.853 20.405 141.853 22.615 L141.853 30.579 L136.682 30.579 L136.682 14.392 L141.853 14.392 L141.853 16.760 Q143.023 15.345 144.336 14.675 Q145.654 14.004 147.245 14.004 Q150.048 14.004 151.500 15.724 Q152.952 17.440 152.952 20.724 Z M170.832 14.897 L170.832 19.119 Q169.778 18.398 168.714 18.051 Q167.651 17.704 166.508 17.704 Q164.344 17.704 163.137 18.966 Q161.930 20.229 161.930 22.500 Q161.930 24.770 163.137 26.038 Q164.344 27.300 166.508 27.300 Q167.725 27.300 168.816 26.939 Q169.907 26.574 170.832 25.867 L170.832 30.103 Q169.616 30.551 168.367 30.773 Q167.119 31.000 165.861 31.000 Q161.481 31.000 159.007 28.752 Q156.537 26.505 156.537 22.500 Q156.537 18.495 159.007 16.252 Q161.481 14.004 165.861 14.004 Q167.133 14.004 168.367 14.226 Q169.602 14.448 170.832 14.897 Z M191.453 22.444 L191.453 23.915 L179.359 23.915 Q179.544 25.737 180.673 26.648 Q181.801 27.559 183.822 27.559 Q185.455 27.559 187.166 27.074 Q188.882 26.588 190.690 25.608 L190.690 29.594 Q188.854 30.288 187.018 30.644 Q185.182 31.000 183.346 31.000 Q178.952 31.000 176.515 28.766 Q174.082 26.532 174.082 22.500 Q174.082 18.541 176.473 16.275 Q178.865 14.004 183.059 14.004 Q186.875 14.004 189.164 16.303 Q191.453 18.596 191.453 22.444 Z M186.135 20.724 Q186.135 19.248 185.274 18.347 Q184.414 17.440 183.027 17.440 Q181.524 17.440 180.585 18.287 Q179.646 19.133 179.415 20.724 L186.135 20.724 Z" fill="#1F2933"/>
</svg>
